<svg width="561" height="292" viewBox="0 0 561 292" fill="none" xmlns="http://www.w3.org/2000/svg">
<path d="M206.537 188.732C206.537 245.765 160.302 292 103.268 292C46.2348 292 0 245.765 0 188.732C0 131.698 46.2348 85.4634 103.268 85.4634C160.302 85.4634 206.537 131.698 206.537 188.732ZM67.9093 188.732C67.9093 208.26 83.7401 224.091 103.268 224.091C122.797 224.091 138.627 208.26 138.627 188.732C138.627 169.203 122.797 153.373 103.268 153.373C83.7401 153.373 67.9093 169.203 67.9093 188.732Z" fill="#262626"/>
<path d="M142.439 85.4634H213.659V292H142.439V85.4634Z" fill="#262626"/>
<path d="M249.268 35.6098L320.488 0V292H249.268V35.6098Z" fill="#262626"/>
<path d="M508.883 42.5852C511.719 39.8591 516.227 39.9478 518.953 42.7832L558.441 83.8555C561.167 86.6909 561.078 91.1994 558.243 93.9255L400.005 246.059C397.17 248.785 392.661 248.697 389.935 245.861L350.447 204.789C347.721 201.954 347.81 197.445 350.645 194.719L508.883 42.5852Z" fill="#262626"/>
<path d="M557.174 196.862C559.953 199.646 559.948 204.155 557.163 206.934L516.832 247.178C514.048 249.956 509.538 249.951 506.76 247.167L351.712 91.783C348.934 88.9987 348.939 84.4893 351.723 81.7111L392.055 41.4669C394.839 38.6886 399.348 38.6935 402.126 41.4778L557.174 196.862Z" fill="#262626"/>
</svg>
